{
	"asset":{
		"generator":"Khronos glTF Blender I/O v3.6.27",
		"version":"2.0"
	},
	"scene":0,
	"scenes":[
		{
			"name":"Scene",
			"nodes":[
				0,
				1,
				2
			]
		}
	],
	"nodes":[
		{
			"mesh":0,
			"name":"Cube",
			"translation":[
				0,
				0,
				-12.460683822631836
			]
		},
		{
			"mesh":1,
			"name":"Cube.002",
			"translation":[
				0,
				0,
				-5.338524341583252
			]
		},
		{
			"mesh":2,
			"name":"Cube.003",
			"translation":[
				0,
				0,
				-23.494773864746094
			]
		}
	],
	"materials":[
		{
			"doubleSided":true,
			"name":"Flat64",
			"pbrMetallicRoughness":{
				"baseColorTexture":{
					"index":0
				},
				"metallicFactor":0,
				"roughnessFactor":0.5
			}
		}
	],
	"meshes":[
		{
			"name":"Cube.001",
			"primitives":[
				{
					"attributes":{
						"POSITION":0,
						"NORMAL":1,
						"TEXCOORD_0":2
					},
					"indices":3,
					"material":0
				}
			]
		},
		{
			"name":"Cube.003",
			"primitives":[
				{
					"attributes":{
						"POSITION":4,
						"NORMAL":5,
						"TEXCOORD_0":6
					},
					"indices":7,
					"material":0
				}
			]
		},
		{
			"name":"Cube.004",
			"primitives":[
				{
					"attributes":{
						"POSITION":8,
						"NORMAL":9,
						"TEXCOORD_0":10
					},
					"indices":11,
					"material":0
				}
			]
		}
	],
	"textures":[
		{
			"sampler":0,
			"source":0
		}
	],
	"images":[
		{
			"bufferView":4,
			"mimeType":"image/png",
			"name":"resurrect64"
		}
	],
	"accessors":[
		{
			"bufferView":0,
			"componentType":5126,
			"count":192,
			"max":[
				1.1172246932983398,
				1.026531457901001,
				1.1943769454956055
			],
			"min":[
				-0.9812904596328735,
				-0.9209977388381958,
				-0.9123662114143372
			],
			"type":"VEC3"
		},
		{
			"bufferView":1,
			"componentType":5126,
			"count":192,
			"type":"VEC3"
		},
		{
			"bufferView":2,
			"componentType":5126,
			"count":192,
			"type":"VEC2"
		},
		{
			"bufferView":3,
			"componentType":5123,
			"count":192,
			"type":"SCALAR"
		},
		{
			"bufferView":5,
			"componentType":5126,
			"count":228,
			"max":[
				1.2670722007751465,
				1.1948403120040894,
				1.317874550819397
			],
			"min":[
				-1.3226829767227173,
				-1.1437084674835205,
				-1.0796353816986084
			],
			"type":"VEC3"
		},
		{
			"bufferView":6,
			"componentType":5126,
			"count":228,
			"type":"VEC3"
		},
		{
			"bufferView":7,
			"componentType":5126,
			"count":228,
			"type":"VEC2"
		},
		{
			"bufferView":8,
			"componentType":5123,
			"count":228,
			"type":"SCALAR"
		},
		{
			"bufferView":9,
			"componentType":5126,
			"count":690,
			"max":[
				2.786181688308716,
				2.6474902629852295,
				2.806757688522339
			],
			"min":[
				-2.6227753162384033,
				-2.4645566940307617,
				-3.2423481941223145
			],
			"type":"VEC3"
		},
		{
			"bufferView":10,
			"componentType":5126,
			"count":690,
			"type":"VEC3"
		},
		{
			"bufferView":11,
			"componentType":5126,
			"count":690,
			"type":"VEC2"
		},
		{
			"bufferView":12,
			"componentType":5123,
			"count":690,
			"type":"SCALAR"
		}
	],
	"bufferViews":[
		{
			"buffer":0,
			"byteLength":2304,
			"byteOffset":0,
			"target":34962
		},
		{
			"buffer":0,
			"byteLength":2304,
			"byteOffset":2304,
			"target":34962
		},
		{
			"buffer":0,
			"byteLength":1536,
			"byteOffset":4608,
			"target":34962
		},
		{
			"buffer":0,
			"byteLength":384,
			"byteOffset":6144,
			"target":34963
		},
		{
			"buffer":0,
			"byteLength":782,
			"byteOffset":6528
		},
		{
			"buffer":0,
			"byteLength":2736,
			"byteOffset":7312,
			"target":34962
		},
		{
			"buffer":0,
			"byteLength":2736,
			"byteOffset":10048,
			"target":34962
		},
		{
			"buffer":0,
			"byteLength":1824,
			"byteOffset":12784,
			"target":34962
		},
		{
			"buffer":0,
			"byteLength":456,
			"byteOffset":14608,
			"target":34963
		},
		{
			"buffer":0,
			"byteLength":8280,
			"byteOffset":15064,
			"target":34962
		},
		{
			"buffer":0,
			"byteLength":8280,
			"byteOffset":23344,
			"target":34962
		},
		{
			"buffer":0,
			"byteLength":5520,
			"byteOffset":31624,
			"target":34962
		},
		{
			"buffer":0,
			"byteLength":1380,
			"byteOffset":37144,
			"target":34963
		}
	],
	"samplers":[
		{
			"magFilter":9728,
			"minFilter":9984
		}
	],
	"buffers":[
		{
			"byteLength":38524,
			"uri":"data:application/octet-stream;base64,"
		}
	]
}
